<?xml version="1.0" encoding="UTF-8"?><svg id="Layer_1_copy" xmlns="http://www.w3.org/2000/svg" viewBox="0 0 735.57 735.24"><defs><style>.cls-1{letter-spacing:0em;}.cls-2{fill:#e9ff8f;}.cls-3{fill:#b4e51a;}.cls-4{opacity:.89;}.cls-5{isolation:isolate;}.cls-6{font-family:Futura-MediumItalic, Futura;font-size:182.23px;}</style></defs><g class="cls-5"><g><path class="cls-2" d="M631.08,171.43c31.89-7.51,30.47-31.36,1.83-60.46l-9.83-9.73c-13.3-12.16-33.39-30.53-66.06-49.97q-12.07-6.92-18.18-10.09-11.28-5.66-16.96-8.25-11.06-4.86-16.65-7.08-11.35-4.34-17.14-6.3c-11.97-3.9-12.2-3.97-18.47-5.74-13.2-3.52-13.71-3.66-20.89-5.25-15.58-3.16-16.19-3.29-24.95-4.6-18.58-2.38-20.09-2.58-31.73-3.31-6.67-.23-15.56-.63-22.23-.66-9.11-.03-17.28,.74-24.25,2.38-47.16,11.1-21.48,57.95,57.36,104.63,78.29,46.36,179.55,75.12,227.14,64.65-28.14-42.79-58.84-84.57-124.59-125.38,51.83,30.69,94.28,74.26,125.59,125.15"/><path class="cls-2" d="M345.57,2.38c-31.89,7.51-30.47,31.36-1.83,60.46l9.83,9.73c13.3,12.16,33.39,30.53,66.06,49.97q12.07,6.92,18.18,10.09,11.28,5.66,16.96,8.25,11.06,4.86,16.65,7.08,11.35,4.34,17.14,6.3c11.97,3.9,12.2,3.97,18.47,5.74,13.2,3.52,13.71,3.66,20.89,5.25,15.58,3.16,16.19,3.29,24.95,4.6,18.58,2.38,20.09,2.58,31.73,3.31,6.67,.23,15.56,.63,22.23,.66,9.11,.03,17.28-.74,24.25-2.38,47.16-11.1,21.48-57.95-57.36-104.63C495.43,20.44,394.17-8.32,346.57,2.15c28.14,42.79,58.84,84.57,124.59,125.38-51.83-30.69-94.28-74.26-125.59-125.15"/><g><path class="cls-2" d="M191.53,44.98c-30.34,18.03-32.82,19.5-50.98,33.51-27.86,23.63-29.53,25.04-44.66,41.44-9.56,11.37-22.02,26.79-30.79,38.78-27.02,39.17,31.66,113.42,156.71,187.46,154.36,91.4,353.05,148.86,451.37,131.53,2.16-.38,4.28-.8,6.34-1.25,13.26-59.69,12.23-121.86-1.3-180.86-75.07,16.52-234.8-28.86-358.29-101.98C205.05,125.59,161.72,57.35,214.43,33.53l-22.89,11.45"/><path class="cls-2" d="M197.19,43.73c-30.34,18.03-32.82,19.5-50.98,33.51-27.86,23.63-29.53,25.04-44.66,41.44-9.56,11.37-22.02,26.79-30.79,38.78-27.02,39.17,31.66,113.42,156.71,187.46,154.36,91.4,353.05,148.86,451.37,131.53,2.16-.38,4.28-.8,6.34-1.25,13.26-59.69,12.23-121.86-1.3-180.86-75.07,16.52-234.8-28.86-358.29-101.98C210.7,124.34,167.38,56.1,220.08,32.28l-22.89,11.45"/><path class="cls-2" d="M681.53,475.99c28.13-6.62,43.4-19.56,46.84-36.92,2.32-14.68,5.03-34.33,6.34-49.13,.8-37.3,.83-38.76-1.41-60.96-5.17-35.6-5.48-37.73-11.51-59.98l-7.76-24.43c8.87,24.53-1.68,43-34.24,50.67,13.75,58.95,14.93,121.09,1.74,180.76"/></g><g><path class="cls-2" d="M1.41,335.55c-1.8,37.37-1.87,38.83-.22,61.03,4.25,35.82,4.5,37.97,9.91,60.2,2.96,10.2,6.81,23.83,10.26,33.88,11.38,31.5,54.8,72.99,124.73,114.4,124.36,73.64,285.48,119.13,359.87,101.62,48.1-22.33,90.8-58.48,123.23-106.76-95.03,22.38-300.86-35.74-459.73-129.81C57.61,403.87-1.14,337.49,7.03,296.18c-1.86,11.78-4.72,27.47-5.62,39.37"/><path class="cls-2" d="M507.5,706.29c5.11-1.28,9.65-2.85,13.64-4.66,13.77-6.94,31.87-16.74,45.13-24.62,29.76-20.67,31.54-21.91,48.38-36.95,26.29-25.72,27.86-27.26,41.72-44.65l13.92-18.88c-7.07,10.24-20,18.09-39.13,22.9-32.49,48.3-75.35,84.48-123.66,106.87"/></g><path class="cls-2" d="M105.63,625.42c19.92,19.43,38.08,36.08,74.77,58.54q12.07,6.92,18.17,10.09,11.28,5.66,16.96,8.25,11.06,4.86,16.65,7.08,11.35,4.34,17.14,6.3c11.97,3.9,12.2,3.97,18.47,5.74,13.46,3.59,13.71,3.66,20.89,5.25,15.58,3.16,16.19,3.29,24.95,4.6,18.58,2.38,20.09,2.58,31.73,3.31,6.67,.23,15.57,.63,22.24,.66-52.58-.18-136.71-27.01-203.9-66.8-26.05-15.42-46.29-30.87-60.03-45.03l1.96,2.01"/></g><text class="cls-6" transform="translate(109.56 439.07)"><tspan class="cls-1" x="0" y="0">C</tspan><tspan x="125.2" y="0">OZY</tspan></text><g class="cls-4"><path class="cls-3" d="M369.17,0c6.67,.16,15.57,.3,22.23,.66,20.09,1.64,20.47,1.67,31.73,3.31q16.48,2.74,24.95,4.6,13.94,3.29,20.89,5.25,12.37,3.67,18.47,5.74,11.49,4.06,17.14,6.3c10.94,4.49,11.15,4.58,16.65,7.08,11.12,5.23,11.33,5.33,16.96,8.25,11.86,6.36,12.08,6.48,18.18,10.09,14.27,8.8,38.17,23.53,66.06,49.97l9.83,9.73c-13.71-13.93-33.67-29.06-59.19-44.18C505.88,27.01,421.76,.19,369.17,0"/><path class="cls-3" d="M65.22,158.72c8.91-11.89,21.1-27.52,30.79-38.78,26.24-26.62,27.27-27.66,44.66-41.44,29.26-21.18,31.02-22.45,50.98-33.51l22.89-11.45c4.35-1.97,9.35-3.63,15.02-4.96,74.39-17.52,235.51,27.98,359.87,101.62,69.92,41.4,113.33,82.88,124.72,114.38l7.76,24.43c8.2,34.17,8.86,36.96,11.51,59.98,2.48,36.37,2.63,38.55,1.41,60.96-1.48,14.79-3.86,34.48-6.34,49.13,8.18-41.31-50.58-107.7-162.42-173.92C407.19,171.08,201.37,112.96,106.34,135.33c-20.23,4.76-33.81,12.79-41.12,23.38"/><path class="cls-3" d="M21.47,490.65c-3.2-10.13-7.55-23.61-10.26-33.88-7.3-34.47-7.89-37.29-9.91-60.2-1.51-36.52-1.6-38.71,.22-61.03,1.51-11.83,3.47-27.63,5.62-39.37,3.43-17.37,18.7-30.31,46.84-36.93,95.03-22.38,300.86,35.74,459.73,129.81,125.05,74.05,183.73,148.3,156.7,187.46l-13.92,18.88c-24.45,28.62-25.41,29.74-41.72,44.65-27.86,23.32-29.53,24.72-48.38,36.95-13.29,7.82-31.32,17.74-45.13,24.62,52.44-23.89,9.08-92.06-105.67-160.01-124.36-73.64-285.48-119.13-359.87-101.62-32.56,7.67-43.11,26.13-34.25,50.65"/><path class="cls-3" d="M217.8,688.96c51.83,30.69,106.74,44.77,159.92,43.9-6.97,1.64-15.13,2.41-24.24,2.38-6.67-.16-15.58-.3-22.24-.66-20.09-1.64-20.47-1.67-31.73-3.31q-16.48-2.74-24.95-4.6-13.94-3.29-20.89-5.25-12.37-3.67-18.47-5.74-11.49-4.06-17.14-6.3c-10.94-4.49-11.15-4.58-16.65-7.08-11.12-5.23-11.33-5.33-16.96-8.25-11.86-6.36-12.08-6.48-18.17-10.09-30.25-18.67-49.81-33.99-74.77-58.54l-1.96-2.01c-27.83-28.71-28.91-52.17,2.67-59.6,47.16-11.1,149.3,17.74,228.15,64.42,78.29,46.36,104.16,92.87,58.35,104.4-46.17-1.21-93.22-5.46-160.9-43.66"/><path class="cls-3" d="M252.13,607.71c-51.83-30.69-106.74-44.77-159.92-43.9,6.97-1.64,15.13-2.41,24.24-2.38,6.67,.16,15.58,.3,22.24,.66,20.09,1.64,20.47,1.67,31.73,3.31q16.48,2.74,24.95,4.6,13.94,3.29,20.89,5.25,12.37,3.67,18.47,5.74,11.49,4.06,17.14,6.3c10.94,4.49,11.15,4.58,16.65,7.08,11.12,5.23,11.33,5.33,16.96,8.25,11.86,6.36,12.08,6.48,18.17,10.09,30.25,18.67,49.81,33.99,74.77,58.54l1.96,2.01c27.83,28.71,28.91,52.17-2.67,59.6-47.16,11.1-149.3-17.74-228.15-64.42-78.29-46.36-104.16-92.87-58.35-104.4,46.17,1.21,93.22,5.46,160.9,43.66"/></g></g></svg>